PathFileType	4	(x/y/z)	TRC_MarkerData\Calibration\Standing_Cal_SL_Passive0001.trc
DataRate	CameraRate	NumFrames	NumMarkers	Units	OrigDataRate	OrigDataStartFrame	OrigNumFrames
240	240	4	50	mm	240	531	849
Frame#	Time	R_AC			L_AC			HEAD			STERN			C7			L_IC			R_IC			L_ASIS			R_ASIS			L_GT			R_GT			L_PSIS			R_PSIS			SACRAL			L_LAT_KNEE			L_MED_KNEE			R_LAT_KNEE			R_MED_KNEE			L_LAT_ANK			L_MED_ANK			R_LAT_ANK			R_MED_ANK			L_THIGH_PROX_POST			L_THIGH_PROX_ANT			L_THIGH_DIST_ANT			L_THIGH_DIST_POST			R_THIGH_PROX_POST			R_THIGH_PROX_ANT			R_THIGH_DIST_ANT			R_THIGH_DIST_POST			L_SHANK_PROX_POST			L_SHANK_PROX_ANT			L_SHANK_DIST_ANT			L_SHANK_DIST_POST			R_SHANK_PROX_POST			R_SHANK_PROX_ANT			R_SHANK_DIST_ANT			R_SHANK_DIST_POST			L_HEEL_LAT			L_HEEL_SUP			L_HEEL_MED			R_HEEL_LAT			R_HEEL_SUP			R_HEEL_MED			L_1ST_MET			L_5TH_MET			L_TOE			R_1ST_MET			R_5TH_MET			R_TOE			
		X1	Y1	Z1	X2	Y2	Z2	X3	Y3	Z3	X4	Y4	Z4	X5	Y5	Z5	X6	Y6	Z6	X7	Y7	Z7	X8	Y8	Z8	X9	Y9	Z9	X10	Y10	Z10	X11	Y11	Z11	X12	Y12	Z12	X13	Y13	Z13	X14	Y14	Z14	X15	Y15	Z15	X16	Y16	Z16	X17	Y17	Z17	X18	Y18	Z18	X19	Y19	Z19	X20	Y20	Z20	X21	Y21	Z21	X22	Y22	Z22	X23	Y23	Z23	X24	Y24	Z24	X25	Y25	Z25	X26	Y26	Z26	X27	Y27	Z27	X28	Y28	Z28	X29	Y29	Z29	X30	Y30	Z30	X31	Y31	Z31	X32	Y32	Z32	X33	Y33	Z33	X34	Y34	Z34	X35	Y35	Z35	X36	Y36	Z36	X37	Y37	Z37	X38	Y38	Z38	X39	Y39	Z39	X40	Y40	Z40	X41	Y41	Z41	X42	Y42	Z42	X43	Y43	Z43	X44	Y44	Z44	X45	Y45	Z45	X46	Y46	Z46	X47	Y47	Z47	X48	Y48	Z48	X49	Y49	Z49	X50	Y50	Z50	

531	2.2109	371.97	1567.3	464.56	395.22	1583.5	170.6	421.92	1817.3	328.08	473.98	1503.9	321.05	330.51	1579.4	318.73	453.25	1112.4	154.57	446.55	1123.1	472.35	510.75	1028.5	179.3	514.54	1031.1	448.27	429.99	940.39	116.3	430.81	954.63	503.98	328.68	1085.4	262.49	327.41	1091.3	355.66	313.47	1057.9	307.94	404.69	535.63	150.87	376.74	521.57	284.61	392.42	540.64	479.06	374.67	548.74	347.61	382.08	114.29	147.45	386.23	110.04	218.76	374.51	107.82	450.39	383.62	127.74	360.32	406.92	767.63	136.31	468.02	760.84	157.79	464.76	686.84	169.76	402.2	692.49	147.19	369.59	749.17	490.2	437.25	749.24	498.23	431.1	674.61	489.76	364.19	674.69	481.77	388.66	449.74	148.58	432.45	459.49	173.68	422.13	401	175.48	364.88	390.32	167.39	326.16	371.67	484.12	394.94	376.53	484.71	394.44	301.04	472.78	323.93	298.93	469.33	302.33	41.85	155.29	297.61	69.904	189.15	309.73	40.518	221.99	306.84	39.542	419.99	303.77	69.569	387.65	320.09	45.214	354.25	517.49	53.749	219.99	479.15	40.473	117.64	575.43	62.755	184.04	529.39	57.606	371.21	488.26	39.636	475.25	579.66	56.678	422.89
532	2.2151	371.95	1567.3	464.54	395.21	1583.5	170.58	421.9	1817.3	328.04	473.99	1503.9	321.05	330.49	1579.4	318.7	453.19	1112.5	154.55	446.48	1123.1	472.33	510.69	1028.5	179.28	514.48	1031.1	448.26	429.93	940.4	116.28	430.76	954.63	503.96	328.62	1085.4	262.47	327.35	1091.3	355.65	313.46	1057.9	307.96	404.68	535.63	150.85	376.73	521.58	284.6	392.4	540.63	479.05	374.66	548.74	347.6	382.07	114.28	147.44	386.23	110.04	218.76	374.5	107.81	450.38	383.61	127.73	360.32	406.88	767.64	136.29	467.98	760.86	157.77	464.73	686.86	169.74	402.17	692.49	147.17	369.55	749.17	490.19	437.21	749.24	498.21	431.07	674.61	489.74	364.16	674.69	481.76	388.65	449.74	148.57	432.44	459.49	173.67	422.12	401	175.46	364.88	390.32	167.37	326.14	371.67	484.1	394.92	376.53	484.7	394.43	301.04	472.77	323.92	298.92	469.31	302.33	41.848	155.28	297.61	69.902	189.15	309.73	40.517	221.99	306.84	39.539	419.99	303.77	69.565	387.65	320.09	45.211	354.25	517.49	53.75	219.99	479.15	40.471	117.64	575.43	62.757	184.04	529.38	57.608	371.21	488.26	39.636	475.25	579.65	56.682	422.89
533	2.2193	371.92	1567.3	464.52	395.21	1583.6	170.57	421.87	1817.3	327.99	474	1503.9	321.05	330.47	1579.4	318.67	453.12	1112.5	154.52	446.41	1123.1	472.31	510.62	1028.6	179.27	514.43	1031.1	448.25	429.87	940.42	116.27	430.72	954.63	503.94	328.57	1085.4	262.46	327.29	1091.3	355.63	313.46	1057.9	307.98	404.67	535.62	150.83	376.72	521.59	284.58	392.37	540.63	479.03	374.64	548.74	347.58	382.07	114.28	147.44	386.23	110.04	218.76	374.5	107.81	450.38	383.61	127.73	360.32	406.85	767.64	136.28	467.95	760.87	157.75	464.7	686.87	169.72	402.14	692.49	147.15	369.52	749.17	490.17	437.18	749.25	498.2	431.05	674.61	489.73	364.13	674.69	481.75	388.64	449.74	148.56	432.43	459.49	173.66	422.11	401	175.44	364.87	390.31	167.36	326.12	371.67	484.08	394.9	376.53	484.7	394.41	301.04	472.76	323.9	298.92	469.3	302.33	41.846	155.28	297.61	69.9	189.15	309.73	40.516	221.99	306.84	39.535	419.99	303.77	69.562	387.65	320.09	45.209	354.25	517.49	53.751	219.99	479.15	40.47	117.64	575.42	62.759	184.04	529.38	57.611	371.21	488.26	39.636	475.25	579.65	56.687	422.89
534	2.2235	371.9	1567.4	464.49	395.21	1583.6	170.55	421.84	1817.4	327.94	474.01	1504	321.04	330.46	1579.5	318.64	453.06	1112.5	154.5	446.35	1123.1	472.29	510.56	1028.6	179.25	514.38	1031.1	448.24	429.81	940.43	116.25	430.67	954.63	503.91	328.51	1085.4	262.44	327.23	1091.3	355.62	313.44	1057.9	307.99	404.66	535.62	150.81	376.71	521.6	284.56	392.35	540.63	479.02	374.62	548.74	347.57	382.07	114.28	147.44	386.23	110.04	218.75	374.5	107.81	450.38	383.6	127.73	360.32	406.81	767.65	136.26	467.91	760.89	157.72	464.68	686.88	169.69	402.11	692.5	147.13	369.49	749.17	490.15	437.15	749.25	498.18	431.02	674.62	489.71	364.1	674.69	481.73	388.63	449.74	148.54	432.42	459.49	173.64	422.1	401	175.42	364.86	390.31	167.34	326.1	371.66	484.07	394.88	376.53	484.69	394.39	301.04	472.75	323.89	298.92	469.28	302.33	41.844	155.28	297.61	69.898	189.14	309.73	40.515	221.99	306.83	39.53	419.99	303.77	69.559	387.65	320.09	45.206	354.25	517.48	53.752	219.98	479.15	40.469	117.64	575.42	62.761	184.04	529.38	57.613	371.21	488.26	39.636	475.25	579.65	56.692	422.89
